<svg xmlns="http://www.w3.org/2000/svg" xmlns:xlink="http://www.w3.org/1999/xlink" width="785.744" height="785.885" viewBox="0 0 785.744 785.885"><defs><linearGradient id="a" x1="-0.042" y1="0.095" x2="0.5" y2="1" gradientUnits="objectBoundingBox"><stop offset="0" stop-color="#573dfa"/><stop offset="1" stop-color="#d62dd1"/></linearGradient></defs><g transform="translate(12.5 12.5)"><path d="M486.716,11.981H81.377A69.789,69.789,0,0,0,11.686,81.672V363.91a69.633,69.633,0,0,0,69.691,69.508H313.313a19.989,19.989,0,0,1,13.9,5.853L442.451,545.544c6.4,6.219,17.011,3.658,17.011-5.3V447.685c0-10.975,6.951-14.45,17.926-14.45h1.829c38.412,0,77.007-30.913,77.007-69.508V81.672A69.4,69.4,0,0,0,486.716,11.981Z" transform="translate(204.52 211.907)" stroke="#fff" stroke-width="25" fill="url(#a)"/><path d="M234.579,182.449H559.071V63.005a59.641,59.641,0,0,0-59.63-59.63H63.005a59.641,59.641,0,0,0-59.63,59.63V365.181a59.641,59.641,0,0,0,59.63,59.63H174.766V242.079A59.915,59.915,0,0,1,234.579,182.449Z" transform="translate(-3.375 -3.375)" stroke="#fff" stroke-width="25" fill="url(#a)"/></g></svg>