<svg xmlns="http://www.w3.org/2000/svg" xmlns:xlink="http://www.w3.org/1999/xlink" width="772" height="772" viewBox="0 0 772 772"><defs><linearGradient id="a" x1="-0.042" y1="0.095" x2="0.5" y2="1" gradientUnits="objectBoundingBox"><stop offset="0" stop-color="#573dfa"/><stop offset="1" stop-color="#d62dd1"/></linearGradient></defs><g transform="translate(-573 -210)"><g transform="translate(573 210)" fill="#fff" stroke="#707070" stroke-width="3"><rect width="772" height="772" rx="70" stroke="none"/><rect x="1.5" y="1.5" width="769" height="769" rx="68.5" fill="none"/></g><g transform="translate(636.311 416.92)"><g transform="translate(0 49.848)"><path d="M204.348,11.981H39.951A28.305,28.305,0,0,0,11.686,40.246V154.716a28.242,28.242,0,0,0,28.265,28.191h94.068a8.107,8.107,0,0,1,5.638,2.374l46.737,43.1c2.6,2.522,6.9,1.484,6.9-2.151V188.693c0-4.451,2.819-5.861,7.27-5.861h.742c15.579,0,31.232-12.538,31.232-28.191V40.246A28.147,28.147,0,0,0,204.348,11.981Z" transform="translate(76.002 78.823)" fill="url(#a)"/><path d="M97.146,76H228.753V27.56A24.189,24.189,0,0,0,204.568,3.375H27.56A24.189,24.189,0,0,0,3.375,27.56V150.116A24.189,24.189,0,0,0,27.56,174.3H72.888V100.188A24.3,24.3,0,0,1,97.146,76Z" transform="translate(-3.375 -3.375)" fill="url(#a)"/></g><text transform="translate(242.895 106)" font-size="101" font-family="Poppins-Bold, Poppins" font-weight="700"><tspan x="0" y="0">Particle</tspan></text><text transform="translate(324.087 220.431)" fill="#5b3cf9" font-size="102" font-family="Poppins-Bold, Poppins" font-weight="700"><tspan x="0" y="0">Chat</tspan></text></g></g></svg>