<svg xmlns="http://www.w3.org/2000/svg" xmlns:xlink="http://www.w3.org/1999/xlink" width="730.367" height="609.071" viewBox="0 0 730.367 609.071"><defs><linearGradient id="a" x1="0.5" x2="0.5" y2="1" gradientUnits="objectBoundingBox"><stop offset="0" stop-color="#d62dd1"/><stop offset="1" stop-color="#5b3cf9"/></linearGradient><linearGradient id="f" x1="0" y1="0.5" x2="1" y2="0.5" xlink:href="#a"/></defs><g transform="translate(-0.005 0.011)"><path d="M600.554,276.255a69.2,69.2,0,0,1-16.48,8.711c-1.519.57-3.06,1.094-4.61,1.564h-68.7c-.3-.524-.593-1.04-.888-1.564-5.939-10.564-11.376-21.545-12.895-33.491-1.785-14.049,3.22-29.959,15.591-36.863a25.191,25.191,0,0,1,5.119-2.149c.736-.22,1.488-.4,2.248-.562a26.744,26.744,0,0,1,31.1,34.767c10.488-10.754,8.528-28.19,4.914-42.763s-8.012-30.795-.638-43.887c4.093-7.283,11.3-11.809,19.38-13.624.251-.053.5-.106.745-.159a39.076,39.076,0,0,1,28.045,4.913c15.454,9.743,23.4,28.213,25.972,46.31C633.611,226.573,624.423,259.062,600.554,276.255Z" transform="translate(-234.814 -145.47)" fill="#f2f2f2"/><path d="M525.538,221.174a60.192,60.192,0,0,1,5.194,37.44,61.736,61.736,0,0,1-11.878,26.352c-.41.524-.828,1.048-1.261,1.564h-2.84c.456-.516.9-1.033,1.336-1.564a58.737,58.737,0,0,0,12.645-47.184,59.331,59.331,0,0,0-11.042-25.319c.737-.22,1.489-.4,2.248-.562a61.024,61.024,0,0,1,5.6,9.273Z" transform="translate(-234.814 -145.47)" fill="#fff"/><path d="M593.78,229.588a66.415,66.415,0,0,1-4.58,18.7,57.746,57.746,0,0,1-8.946,14.611A73.807,73.807,0,0,1,551.9,283.34c-1.375.577-2.772,1.124-4.169,1.625q-2.324.843-4.678,1.564h-8.46c2.073-.463,4.123-.98,6.159-1.564a90.246,90.246,0,0,0,14.626-5.551,68.723,68.723,0,0,0,25.73-21.112c7.207-9.941,10.389-21.9,10.928-34.06a143.508,143.508,0,0,0-4.078-38.913,163.121,163.121,0,0,0-13.723-37.386,1.174,1.174,0,0,1,.463-1.549.986.986,0,0,1,.745-.16.9.9,0,0,1,.577.494c.752,1.466,1.488,2.931,2.195,4.412a165.476,165.476,0,0,1,12.933,38.791C593.749,202.872,595.146,216.4,593.78,229.588Z" transform="translate(-234.814 -145.47)" fill="#fff"/><circle cx="28" cy="28" r="28" transform="translate(501.357 219.076)" fill="#2f2e41"/><path d="M522.715,596.582H510.456l-5.833-47.288h18.1Z" fill="#a0616a"/><path d="M760.656,753.936H721.125v-.5a15.386,15.386,0,0,1,15.387-15.387h24.144Z" transform="translate(-234.814 -145.47)" fill="#2f2e41"/><path d="M605.288,586.134,593.6,589.84l-19.855-43.313,17.248-5.469Z" fill="#a0616a"/><path d="M846.675,741.987l-37.682,11.949-.151-.477a15.386,15.386,0,0,1,10.016-19.318h0l23.015-7.3Z" transform="translate(-234.814 -145.47)" fill="#2f2e41"/><path d="M756.506,729.546H746.019a4.5,4.5,0,0,1-4.43-3.708l-25-170.812,74.456,2.533,47.882,156.859a4.5,4.5,0,0,1-3.748,5.659l-13.515,5.12a4.474,4.474,0,0,1-4.643-2.651L758.465,589.881a1.5,1.5,0,0,0-2.871.665L761,724.864a4.5,4.5,0,0,1-4.5,4.682Z" transform="translate(-234.814 -145.47)" fill="#2f2e41"/><circle cx="24.561" cy="24.561" r="24.561" transform="translate(505.292 229.783)" fill="#a0616a"/><path d="M761.378,574.61c-12.7,0-27.977-3.209-44.366-13.456A4.516,4.516,0,0,1,715.09,556l16.08-52.026-.2-42.334a32.223,32.223,0,0,1,24.948-28.479c.292-.067.585-.132.882-.2a31.426,31.426,0,0,1,28.273,7.77,32.44,32.44,0,0,1,10.153,28.1l-4.052,62.186,5.5,31.149a4.467,4.467,0,0,1-2.352,4.773,73.363,73.363,0,0,1-32.94,7.668Z" transform="translate(-234.814 -145.47)" fill="url(#a)"/><path d="M743.288,524.842a10.529,10.529,0,0,0-1.56-.561l-15.737-47.03,7.969-9.036-12.066-13.809-15.661,14.626a8,8,0,0,0-1.681,9.453l25.432,50.365a10.5,10.5,0,1,0,13.305-4.008Z" transform="translate(-234.814 -145.47)" fill="#a0616a"/><path d="M725.126,475.61l-14.871-17.187a4.5,4.5,0,0,1,.989-6.742l19.123-12.155a12.5,12.5,0,0,1,16.3,18.949L731.94,475.6a4.5,4.5,0,0,1-6.814.01Z" transform="translate(-234.814 -145.47)" fill="url(#a)"/><path d="M735.152,376.339a16.2,16.2,0,0,0-5,4.321c-1.189,1.825-1.431,4.364.054,5.99,1.755,1.922,4.929,1.789,7.621,1.492l27.36-3.015-10.771,7.6,25.895-2.583c4.525-.451,9.74-1.308,11.945-5.011,2.587-4.345-.706-9.739-4.641-13.1a40.344,40.344,0,0,0-28.444-9.214,39.526,39.526,0,0,0-26.731,12.911Z" transform="translate(-234.814 -145.47)" fill="#2f2e41"/><path d="M762.525,507.621h-.3V499.34a4.793,4.793,0,0,0-4.793-4.793H739.884a4.793,4.793,0,0,0-4.793,4.793v45.432a4.793,4.793,0,0,0,4.793,4.793H757.43a4.793,4.793,0,0,0,4.793-4.793V513.516h.3Z" transform="translate(-234.814 -145.47)" fill="#3f3d56"/><circle cx="4" cy="4" r="4" transform="translate(509.357 360.076)" fill="#fff"/><path d="M752.041,520.683a10.536,10.536,0,0,1,1.629.3l37.341-32.636L788.7,476.527l17.389-5.821,6.126,20.535a8,8,0,0,1-3.325,9.007L761.5,530.864a10.5,10.5,0,1,1-9.457-10.181Z" transform="translate(-234.814 -145.47)" fill="#a0616a"/><path d="M788.859,486.992a4.5,4.5,0,0,1-2.147-3.071L782.656,461.7a12.5,12.5,0,1,1,23.64-8.119l10.362,20.151a4.5,4.5,0,0,1-2.553,6.318l-21.517,7.319a4.5,4.5,0,0,1-3.728-.38Z" transform="translate(-234.814 -145.47)" fill="url(#a)"/><path d="M607.914,421.88H434.524a16,16,0,0,0,0,32h155.54l12.68,19.49a3.032,3.032,0,0,0,2.56,1.42,3.178,3.178,0,0,0,.91-.13,3.043,3.043,0,0,0,2.22-2.97V453.87a16,16,0,1,0-.52-31.992Zm0,29.94h-1.55v19.87a1.026,1.026,0,0,1-1.89.56L591.2,451.82H434.524a13.935,13.935,0,1,1,0-27.87h173.39a13.935,13.935,0,0,1,0,27.87Z" transform="translate(-234.814 -145.47)" fill="#3f3d56"/><path d="M531.544,353.77H250.814a15.995,15.995,0,1,0,0,31.99h2.58V404.6a3.037,3.037,0,0,0,2.21,2.97,3.3,3.3,0,0,0,.92.13,3.022,3.022,0,0,0,2.56-1.41l13.34-20.53h259.12a16,16,0,0,0,0-31.99Zm0,29.93H271.3l-13.95,21.46a1.033,1.033,0,0,1-1.9-.56V383.7h-4.64a13.935,13.935,0,1,1,0-27.87h280.73a13.935,13.935,0,1,1,0,27.87Z" transform="translate(-234.814 -145.47)" fill="#ccc"/><path d="M424.2,217.53H250.814a15.995,15.995,0,0,0,0,31.99h2.58v18.84a3.037,3.037,0,0,0,2.21,2.97,3.316,3.316,0,0,0,.92.14,3.032,3.032,0,0,0,2.56-1.42l13.34-20.53H424.2a16,16,0,0,0,0-31.99Zm0,29.93H271.3l-13.95,21.47a1.036,1.036,0,0,1-1.9-.57v-20.9h-4.64a13.935,13.935,0,1,1,0-27.87H424.2a13.935,13.935,0,0,1,0,27.87Z" transform="translate(-234.814 -145.47)" fill="#ccc"/><path d="M607.914,285.65H365.374a15.995,15.995,0,1,0,0,31.99h220.67l16.7,25.69a3.032,3.032,0,0,0,2.56,1.42,3.192,3.192,0,0,0,.91-.14,3.035,3.035,0,0,0,2.22-2.97v-24a16,16,0,1,0-.52-31.992Zm0,29.93h-1.55v26.06a.99.99,0,0,1-.73.99,1.007,1.007,0,0,1-1.16-.42l-17.31-26.63H365.374a13.935,13.935,0,0,1,0-27.87h242.54a13.935,13.935,0,0,1,0,27.87Z" transform="translate(-234.814 -145.47)" fill="#3f3d56"/><circle cx="8.257" cy="8.257" r="8.257" transform="translate(196.098 284.671)" fill="url(#a)"/><circle cx="8.257" cy="8.257" r="8.257" transform="translate(220.868 284.671)" fill="url(#a)"/><circle cx="8.257" cy="8.257" r="8.257" transform="translate(245.639 284.671)" fill="#3f3d56"/><path d="M504.044,365.68H278.314a4.232,4.232,0,0,0-4.23,4.23v.74a4.232,4.232,0,0,0,4.23,4.23h225.73a4.238,4.238,0,0,0,4.23-4.23v-.74a4.238,4.238,0,0,0-4.23-4.23Z" transform="translate(-234.814 -145.47)" fill="#ccc"/><path d="M416.834,228.41H258.184a4.238,4.238,0,0,0-4.23,4.23v.74a4.238,4.238,0,0,0,4.23,4.23h158.65a4.238,4.238,0,0,0,4.23-4.23v-.74a4.238,4.238,0,0,0-4.23-4.23Z" transform="translate(-234.814 -145.47)" fill="#ccc"/><path d="M565.974,297.56H407.324a4.238,4.238,0,0,0-4.23,4.23v.74a4.238,4.238,0,0,0,4.23,4.23h158.65a4.23,4.23,0,0,0,4.22-4.23v-.74a4.23,4.23,0,0,0-4.221-4.23Z" transform="translate(-234.814 -145.47)" fill="url(#f)"/><path d="M964.186,754.53h-381a1,1,0,0,1,0-2h381a1,1,0,0,1,0,2Z" transform="translate(-234.814 -145.47)" fill="#3f3d56"/></g></svg>